<svg id="Capa_1" data-name="Capa 1" xmlns="http://www.w3.org/2000/svg" xmlns:xlink="http://www.w3.org/1999/xlink" viewBox="0 0 366 270"><defs><filter id="a" x="-1.6" y="-2.6" width="103.2" height="105.1" name="a"><feOffset result="shadowOffsetOuter1" in="SourceAlpha"/><feGaussianBlur result="shadowBlurOuter1" stdDeviation="3.5" in="shadowOffsetOuter1"/></filter><filter id="c" x="-1.6" y="-24" width="103.2" height="147.9" name="c"><feOffset result="shadowOffsetOuter1" in="SourceAlpha"/><feGaussianBlur result="shadowBlurOuter1" stdDeviation="3.5" in="shadowOffsetOuter1"/></filter><linearGradient id="Degradado_sin_nombre" x1="-86.94" y1="67.22" x2="-86.63" y2="66.5" gradientTransform="matrix(65.76, 0, 0, -65.73, 5755.55, 4472.67)" gradientUnits="userSpaceOnUse"><stop offset="0" stop-color="#fad961"/><stop offset="1" stop-color="#ff52c1"/></linearGradient><linearGradient id="Degradado_sin_nombre_2" x1="-86.71" y1="67.85" x2="-86.71" y2="67.34" gradientTransform="matrix(61.65, 0, 0, -61.63, 5393.87, 4290.56)" gradientUnits="userSpaceOnUse"><stop offset="0" stop-color="#00c7fa"/><stop offset="1" stop-color="#007dfa"/></linearGradient><linearGradient id="Degradado_sin_nombre_3" x1="-86.84" y1="68.62" x2="-86.53" y2="68.06" gradientTransform="matrix(61.65, 0, 0, -61.63, 5393.87, 4388.47)" gradientUnits="userSpaceOnUse"><stop offset="0" stop-color="#ff52c1"/><stop offset="1" stop-color="#9952ff"/></linearGradient><filter id="h" x="-4.1" y="-2.6" width="108.2" height="105.1" name="h"><feOffset result="shadowOffsetOuter1" in="SourceAlpha"/><feGaussianBlur result="shadowBlurOuter1" stdDeviation="3" in="shadowOffsetOuter1"/></filter><filter id="j" x="-4.1" y="-24.1" width="108.2" height="148.1" name="j"><feOffset result="shadowOffsetOuter1" in="SourceAlpha"/><feGaussianBlur result="shadowBlurOuter1" stdDeviation="3" in="shadowOffsetOuter1"/></filter><linearGradient id="Degradado_sin_nombre_4" x1="-95.58" y1="70.36" x2="-95.27" y2="69.64" gradientTransform="matrix(20.55, 0, 0, -20.54, 2226.29, 1566.69)" xlink:href="#Degradado_sin_nombre"/><linearGradient id="Degradado_sin_nombre_5" x1="-95.58" y1="72.63" x2="-95.27" y2="71.91" gradientTransform="matrix(20.55, 0, 0, -20.54, 2226.29, 1661.18)" xlink:href="#Degradado_sin_nombre"/><linearGradient id="Degradado_sin_nombre_6" x1="-95.42" y1="71" x2="-95.42" y2="70.49" gradientTransform="matrix(20.55, 0, 0, -20.54, 2226.29, 1598.18)" xlink:href="#Degradado_sin_nombre_2"/><linearGradient id="Degradado_sin_nombre_7" x1="-95.42" y1="73.27" x2="-95.42" y2="72.76" gradientTransform="matrix(20.55, 0, 0, -20.54, 2226.29, 1692.67)" xlink:href="#Degradado_sin_nombre_2"/><linearGradient id="Degradado_sin_nombre_8" x1="-95.55" y1="71.74" x2="-95.24" y2="71.18" gradientTransform="matrix(20.55, 0, 0, -20.54, 2226.29, 1629.68)" xlink:href="#Degradado_sin_nombre_3"/><linearGradient id="Degradado_sin_nombre_9" x1="-95.55" y1="74.01" x2="-95.24" y2="73.44" gradientTransform="matrix(20.55, 0, 0, -20.54, 2226.29, 1724.17)" xlink:href="#Degradado_sin_nombre_3"/><linearGradient id="Degradado_sin_nombre_10" x1="-95.58" y1="74.9" x2="-95.27" y2="74.18" gradientTransform="matrix(20.55, 0, 0, -20.54, 2226.29, 1755.67)" xlink:href="#Degradado_sin_nombre"/><linearGradient id="Degradado_sin_nombre_11" x1="-95.42" y1="75.53" x2="-95.42" y2="75.03" gradientTransform="matrix(20.55, 0, 0, -20.54, 2226.29, 1787.17)" xlink:href="#Degradado_sin_nombre_2"/></defs><title>illustration-mockupsmobile</title><g style="filter:url(#a)"><rect id="b" x="7.17" y="14.08" width="333.39" height="208.27" rx="6.95"/></g><rect x="7.17" y="14.08" width="333.39" height="208.27" rx="6.95" style="fill:#fff"/><g style="filter:url(#c)"><path id="d" d="M14.11,14.08h319.5A6.94,6.94,0,0,1,340.55,21V36.29H7.17V21A6.94,6.94,0,0,1,14.11,14.08Z" style="fill-rule:evenodd"/></g><path d="M14.11,14.08h319.5A6.94,6.94,0,0,1,340.55,21V36.29H7.17V21A6.94,6.94,0,0,1,14.11,14.08Z" style="fill:#00252e;fill-rule:evenodd"/><rect x="32.17" y="21.02" width="69.46" height="8.33" rx="1.74" style="fill:#e1e8ee"/><rect x="307.21" y="21.71" width="11.11" height="1.39" rx="0.69" style="fill:#d8d8d8"/><rect x="307.21" y="24.49" width="11.11" height="1.39" rx="0.69" style="fill:#d8d8d8"/><rect x="307.21" y="27.27" width="11.11" height="1.39" rx="0.69" style="fill:#d8d8d8"/><ellipse cx="48.84" cy="78.64" rx="16.67" ry="16.66" style="fill:url(#Degradado_sin_nombre)"/><rect x="84.96" y="66.14" width="39.94" height="5.55" rx="1.04" style="fill:#e1e8ee"/><rect x="84.96" y="77.25" width="138.91" height="2.78" rx="1.04" style="fill:#e1e8ee"/><rect x="84.96" y="82.81" width="127.34" height="2.78" rx="1.04" style="fill:#e1e8ee"/><rect x="84.96" y="88.36" width="115.76" height="2.78" rx="1.04" style="fill:#e1e8ee"/><circle cx="244.7" cy="78.64" r="4.17" style="fill:#a7b9c8"/><circle cx="266.93" cy="78.64" r="4.17" style="fill:#a7b9c8"/><circle cx="255.82" cy="78.64" r="4.17" style="fill:#a7b9c8"/><circle cx="278.04" cy="78.64" r="4.17" style="fill:#a7b9c8"/><circle cx="289.16" cy="78.64" r="4.17" style="fill:#a7b9c8"/><ellipse cx="47.8" cy="124.81" rx="15.63" ry="15.62" style="fill:url(#Degradado_sin_nombre_2)"/><rect x="83.91" y="112.31" width="39.94" height="5.55" rx="1.04" style="fill:#e1e8ee"/><rect x="83.91" y="123.42" width="138.91" height="2.78" rx="1.04" style="fill:#e1e8ee"/><rect x="83.91" y="128.97" width="127.34" height="2.78" rx="1.04" style="fill:#e1e8ee"/><rect x="83.91" y="134.53" width="115.76" height="2.78" rx="1.04" style="fill:#e1e8ee"/><circle cx="243.66" cy="124.81" r="4.17" style="fill:#a7b9c8"/><circle cx="265.89" cy="124.81" r="4.17" style="fill:#a7b9c8"/><circle cx="254.78" cy="124.81" r="4.17" style="fill:#a7b9c8"/><ellipse cx="47.8" cy="174.44" rx="15.63" ry="15.62" style="fill:url(#Degradado_sin_nombre_3)"/><rect x="83.91" y="161.95" width="39.94" height="5.55" rx="1.04" style="fill:#e1e8ee"/><rect x="83.91" y="173.06" width="138.91" height="2.78" rx="1.04" style="fill:#e1e8ee"/><rect x="83.91" y="178.61" width="127.34" height="2.78" rx="1.04" style="fill:#e1e8ee"/><rect x="83.91" y="184.16" width="115.76" height="2.78" rx="1.04" style="fill:#e1e8ee"/><circle cx="243.66" cy="174.44" r="4.17" style="fill:#a7b9c8"/><circle cx="265.89" cy="174.44" r="4.17" style="fill:#a7b9c8"/><circle cx="254.78" cy="174.44" r="4.17" style="fill:#a7b9c8"/><circle cx="277" cy="174.44" r="4.17" style="fill:#a7b9c8"/><g style="filter:url(#h)"><path id="i" d="M254.8,86.28h99.27A5.92,5.92,0,0,1,360,92.2V258.07a5.92,5.92,0,0,1-5.93,5.93H254.8a5.92,5.92,0,0,1-5.93-5.93V92.2A5.92,5.92,0,0,1,254.8,86.28Z" style="fill-rule:evenodd"/></g><path d="M254.8,86.28h99.27A5.92,5.92,0,0,1,360,92.2V258.07a5.92,5.92,0,0,1-5.93,5.93H254.8a5.92,5.92,0,0,1-5.93-5.93V92.2A5.92,5.92,0,0,1,254.8,86.28Z" style="fill:#fff;fill-rule:evenodd"/><g style="filter:url(#j)"><path id="k" d="M254.8,86.28h99.27A5.92,5.92,0,0,1,360,92.2v13H248.87v-13A5.92,5.92,0,0,1,254.8,86.28Z" style="fill-rule:evenodd"/></g><path d="M254.8,86.28h99.27A5.92,5.92,0,0,1,360,92.2v13H248.87v-13A5.92,5.92,0,0,1,254.8,86.28Z" style="fill:#00252e;fill-rule:evenodd"/><rect x="260.03" y="92.79" width="36.12" height="7.11" rx="1.48" style="fill:#e1e8ee"/><path d="M339.26,93.39h8.29a.59.59,0,0,1,.6.59h0a.59.59,0,0,1-.6.59h-8.29a.59.59,0,0,1-.6-.59h0A.59.59,0,0,1,339.26,93.39Z" style="fill:#d8d8d8;fill-rule:evenodd"/><path d="M339.26,95.76h8.29a.59.59,0,0,1,.6.59h0a.6.6,0,0,1-.6.59h-8.29a.6.6,0,0,1-.6-.59h0A.59.59,0,0,1,339.26,95.76Z" style="fill:#d8d8d8;fill-rule:evenodd"/><path d="M339.26,98.12h8.29a.6.6,0,0,1,.6.6h0a.6.6,0,0,1-.6.59h-8.29a.6.6,0,0,1-.6-.59h0A.6.6,0,0,1,339.26,98.12Z" style="fill:#d8d8d8;fill-rule:evenodd"/><circle cx="265.19" cy="128.97" r="5.21" style="fill:url(#Degradado_sin_nombre_4)"/><rect x="275.96" y="124.81" width="19.97" height="1.85" rx="0.32" style="fill:#e1e8ee"/><rect x="275.96" y="128.51" width="69.46" height="0.93" rx="0.32" style="fill:#e1e8ee"/><rect x="275.96" y="130.36" width="63.67" height="0.93" rx="0.32" style="fill:#e1e8ee"/><rect x="275.96" y="132.21" width="57.88" height="0.93" rx="0.32" style="fill:#e1e8ee"/><circle cx="265.19" cy="176.87" r="5.21" style="fill:url(#Degradado_sin_nombre_5)"/><rect x="275.96" y="172.71" width="19.97" height="1.85" rx="0.32" style="fill:#e1e8ee"/><rect x="275.96" y="176.41" width="69.46" height="0.93" rx="0.32" style="fill:#e1e8ee"/><rect x="275.96" y="178.26" width="63.67" height="0.93" rx="0.32" style="fill:#e1e8ee"/><rect x="275.96" y="180.11" width="57.88" height="0.93" rx="0.32" style="fill:#e1e8ee"/><rect x="275.96" y="140.77" width="19.97" height="1.85" rx="0.32" style="fill:#e1e8ee"/><rect x="275.96" y="144.48" width="69.46" height="0.93" rx="0.32" style="fill:#e1e8ee"/><rect x="275.96" y="146.33" width="63.67" height="0.93" rx="0.32" style="fill:#e1e8ee"/><rect x="275.96" y="148.18" width="57.88" height="0.93" rx="0.32" style="fill:#e1e8ee"/><circle cx="265.19" cy="144.94" r="5.21" style="fill:url(#Degradado_sin_nombre_6)"/><rect x="275.96" y="188.68" width="19.97" height="1.85" rx="0.32" style="fill:#e1e8ee"/><rect x="275.96" y="192.38" width="69.46" height="0.93" rx="0.32" style="fill:#e1e8ee"/><rect x="275.96" y="194.23" width="63.67" height="0.93" rx="0.32" style="fill:#e1e8ee"/><rect x="275.96" y="196.08" width="57.88" height="0.93" rx="0.32" style="fill:#e1e8ee"/><circle cx="265.19" cy="192.84" r="5.21" style="fill:url(#Degradado_sin_nombre_7)"/><rect x="275.96" y="156.74" width="19.97" height="1.85" rx="0.32" style="fill:#e1e8ee"/><rect x="275.96" y="160.44" width="69.46" height="0.93" rx="0.32" style="fill:#e1e8ee"/><rect x="275.96" y="162.3" width="63.67" height="0.93" rx="0.32" style="fill:#e1e8ee"/><rect x="275.96" y="164.15" width="57.88" height="0.93" rx="0.32" style="fill:#e1e8ee"/><circle cx="265.19" cy="160.91" r="5.21" style="fill:url(#Degradado_sin_nombre_8)"/><rect x="275.96" y="204.64" width="19.97" height="1.85" rx="0.32" style="fill:#e1e8ee"/><rect x="275.96" y="208.35" width="69.46" height="0.93" rx="0.32" style="fill:#e1e8ee"/><rect x="275.96" y="210.2" width="63.67" height="0.93" rx="0.32" style="fill:#e1e8ee"/><rect x="275.96" y="212.05" width="57.88" height="0.93" rx="0.32" style="fill:#e1e8ee"/><circle cx="265.19" cy="208.81" r="5.21" style="fill:url(#Degradado_sin_nombre_9)"/><circle cx="265.19" cy="224.78" r="5.21" style="fill:url(#Degradado_sin_nombre_10)"/><rect x="275.96" y="220.61" width="19.97" height="1.85" rx="0.32" style="fill:#e1e8ee"/><rect x="275.96" y="224.31" width="69.46" height="0.93" rx="0.32" style="fill:#e1e8ee"/><rect x="275.96" y="226.16" width="63.67" height="0.93" rx="0.32" style="fill:#e1e8ee"/><rect x="275.96" y="228.02" width="57.88" height="0.93" rx="0.32" style="fill:#e1e8ee"/><rect x="275.96" y="236.58" width="19.97" height="1.85" rx="0.32" style="fill:#e1e8ee"/><rect x="275.96" y="240.28" width="69.46" height="0.93" rx="0.32" style="fill:#e1e8ee"/><rect x="275.96" y="242.13" width="63.67" height="0.93" rx="0.32" style="fill:#e1e8ee"/><rect x="275.96" y="243.98" width="57.88" height="0.93" rx="0.32" style="fill:#e1e8ee"/><circle cx="265.19" cy="240.74" r="5.21" style="fill:url(#Degradado_sin_nombre_11)"/></svg>