<svg id="Capa_1" data-name="Capa 1" xmlns="http://www.w3.org/2000/svg" xmlns:xlink="http://www.w3.org/1999/xlink" viewBox="0 0 352.834 249.924"><defs><style>.cls-1{filter:url(#a);}.cls-13,.cls-2{fill:#fff;}.cls-3{filter:url(#c);}.cls-13,.cls-15,.cls-4,.cls-5{fill-rule:evenodd;}.cls-5{fill:#00252e;}.cls-6{fill:#e1e8ee;}.cls-15,.cls-7{fill:#d8d8d8;}.cls-8{fill:url(#Degradado_sin_nombre);}.cls-9{fill:#a7b9c8;}.cls-10{fill:url(#Degradado_sin_nombre_2);}.cls-11{fill:url(#Degradado_sin_nombre_3);}.cls-12{filter:url(#h);}.cls-14{filter:url(#j);}.cls-16{fill:url(#Degradado_sin_nombre_4);}.cls-17{fill:url(#Degradado_sin_nombre_5);}.cls-18{fill:url(#Degradado_sin_nombre_6);}.cls-19{fill:url(#Degradado_sin_nombre_7);}.cls-20{fill:url(#Degradado_sin_nombre_8);}.cls-21{fill:url(#Degradado_sin_nombre_9);}.cls-22{fill:url(#Degradado_sin_nombre_10);}.cls-23{fill:url(#Degradado_sin_nombre_11);}</style><filter id="a" x="-8.766" y="-16.676" width="103.2" height="105.1" name="a"><feOffset result="shadowOffsetOuter1" in="SourceAlpha"/><feGaussianBlur result="shadowBlurOuter1" stdDeviation="3.5" in="shadowOffsetOuter1"/></filter><filter id="c" x="-8.766" y="-38.076" width="103.2" height="147.9" name="c"><feOffset result="shadowOffsetOuter1" in="SourceAlpha"/><feGaussianBlur result="shadowBlurOuter1" stdDeviation="3.5" in="shadowOffsetOuter1"/></filter><linearGradient id="Degradado_sin_nombre" x1="-86.937" y1="67.22" x2="-86.627" y2="66.501" gradientTransform="matrix(65.764, 0, 0, -65.734, 5748.389, 4458.594)" gradientUnits="userSpaceOnUse"><stop offset="0" stop-color="#fad961"/><stop offset="1" stop-color="#ff52c1"/></linearGradient><linearGradient id="Degradado_sin_nombre_2" x1="-86.711" y1="67.851" x2="-86.711" y2="67.344" gradientTransform="matrix(61.654, 0, 0, -61.626, 5386.709, 4276.48)" gradientUnits="userSpaceOnUse"><stop offset="0" stop-color="#00c7fa"/><stop offset="1" stop-color="#007dfa"/></linearGradient><linearGradient id="Degradado_sin_nombre_3" x1="-86.843" y1="68.62" x2="-86.532" y2="68.056" gradientTransform="matrix(61.654, 0, 0, -61.626, 5386.709, 4374.396)" gradientUnits="userSpaceOnUse"><stop offset="0" stop-color="#ff52c1"/><stop offset="1" stop-color="#9952ff"/></linearGradient><filter id="h" x="-11.266" y="-16.676" width="108.2" height="105.1" name="h"><feOffset result="shadowOffsetOuter1" in="SourceAlpha"/><feGaussianBlur result="shadowBlurOuter1" stdDeviation="3" in="shadowOffsetOuter1"/></filter><filter id="j" x="-11.266" y="-38.176" width="108.2" height="148.1" name="j"><feOffset result="shadowOffsetOuter1" in="SourceAlpha"/><feGaussianBlur result="shadowBlurOuter1" stdDeviation="3" in="shadowOffsetOuter1"/></filter><linearGradient id="Degradado_sin_nombre_4" x1="-95.582" y1="70.363" x2="-95.272" y2="69.644" gradientTransform="matrix(20.552, 0, 0, -20.542, 2219.119, 1552.61)" xlink:href="#Degradado_sin_nombre"/><linearGradient id="Degradado_sin_nombre_5" x1="-95.582" y1="72.631" x2="-95.272" y2="71.912" gradientTransform="matrix(20.552, 0, 0, -20.542, 2219.119, 1647.102)" xlink:href="#Degradado_sin_nombre"/><linearGradient id="Degradado_sin_nombre_6" x1="-95.421" y1="70.999" x2="-95.421" y2="70.492" gradientTransform="matrix(20.552, 0, 0, -20.542, 2219.119, 1584.108)" xlink:href="#Degradado_sin_nombre_2"/><linearGradient id="Degradado_sin_nombre_7" x1="-95.421" y1="73.267" x2="-95.421" y2="72.76" gradientTransform="matrix(20.552, 0, 0, -20.542, 2219.119, 1678.599)" xlink:href="#Degradado_sin_nombre_2"/><linearGradient id="Degradado_sin_nombre_8" x1="-95.553" y1="71.741" x2="-95.242" y2="71.177" gradientTransform="matrix(20.552, 0, 0, -20.542, 2219.119, 1615.605)" xlink:href="#Degradado_sin_nombre_3"/><linearGradient id="Degradado_sin_nombre_9" x1="-95.553" y1="74.009" x2="-95.242" y2="73.445" gradientTransform="matrix(20.552, 0, 0, -20.542, 2219.119, 1710.096)" xlink:href="#Degradado_sin_nombre_3"/><linearGradient id="Degradado_sin_nombre_10" x1="-95.582" y1="74.899" x2="-95.272" y2="74.181" gradientTransform="matrix(20.552, 0, 0, -20.542, 2219.119, 1741.594)" xlink:href="#Degradado_sin_nombre"/><linearGradient id="Degradado_sin_nombre_11" x1="-95.421" y1="75.535" x2="-95.421" y2="75.028" gradientTransform="matrix(20.552, 0, 0, -20.542, 2219.119, 1773.091)" xlink:href="#Degradado_sin_nombre_2"/></defs><title>illustration-mockupsmobile2</title><g class="cls-1"><rect id="b" width="333.386" height="208.27" rx="6.946"/></g><rect class="cls-2" width="333.386" height="208.27" rx="6.946"/><g class="cls-3"><path id="d" class="cls-4" d="M14.111,14.076h319.5a6.945,6.945,0,0,1,6.945,6.945v15.27H7.166V21.022A6.946,6.946,0,0,1,14.111,14.076Z" transform="translate(-7.166 -14.076)"/></g><path class="cls-5" d="M14.111,14.076h319.5a6.945,6.945,0,0,1,6.945,6.945v15.27H7.166V21.022A6.946,6.946,0,0,1,14.111,14.076Z" transform="translate(-7.166 -14.076)"/><rect class="cls-6" x="25.004" y="6.942" width="69.456" height="8.331" rx="1.736"/><rect class="cls-7" x="300.048" y="7.637" width="11.113" height="1.389" rx="0.694"/><rect class="cls-7" x="300.048" y="10.414" width="11.113" height="1.389" rx="0.694"/><rect class="cls-7" x="300.048" y="13.191" width="11.113" height="1.389" rx="0.694"/><ellipse class="cls-8" cx="41.673" cy="64.564" rx="16.669" ry="16.662"/><rect class="cls-6" x="77.79" y="52.068" width="39.937" height="5.554" rx="1.042"/><rect class="cls-6" x="77.79" y="63.176" width="138.911" height="2.777" rx="1.042"/><rect class="cls-6" x="77.79" y="68.73" width="127.335" height="2.777" rx="1.042"/><rect class="cls-6" x="77.79" y="74.283" width="115.759" height="2.777" rx="1.042"/><circle class="cls-9" cx="237.538" cy="64.564" r="4.167"/><circle class="cls-9" cx="259.764" cy="64.564" r="4.167"/><circle class="cls-9" cx="248.651" cy="64.564" r="4.167"/><circle class="cls-9" cx="270.877" cy="64.564" r="4.167"/><circle class="cls-9" cx="281.99" cy="64.564" r="4.167"/><ellipse class="cls-10" cx="40.632" cy="110.731" rx="15.628" ry="15.621"/><rect class="cls-6" x="76.748" y="98.234" width="39.937" height="5.554" rx="1.042"/><rect class="cls-6" x="76.748" y="109.341" width="138.911" height="2.777" rx="1.042"/><rect class="cls-6" x="76.748" y="114.896" width="127.335" height="2.777" rx="1.042"/><rect class="cls-6" x="76.748" y="120.449" width="115.759" height="2.777" rx="1.042"/><circle class="cls-9" cx="236.496" cy="110.731" r="4.167"/><circle class="cls-9" cx="258.722" cy="110.731" r="4.167"/><circle class="cls-9" cx="247.609" cy="110.731" r="4.167"/><ellipse class="cls-11" cx="40.632" cy="160.369" rx="15.628" ry="15.621"/><rect class="cls-6" x="76.748" y="147.872" width="39.937" height="5.554" rx="1.042"/><rect class="cls-6" x="76.748" y="158.98" width="138.911" height="2.777" rx="1.042"/><rect class="cls-6" x="76.748" y="164.534" width="127.335" height="2.777" rx="1.042"/><rect class="cls-6" x="76.748" y="170.087" width="115.759" height="2.777" rx="1.042"/><circle class="cls-9" cx="236.496" cy="160.369" r="4.167"/><circle class="cls-9" cx="258.722" cy="160.369" r="4.167"/><circle class="cls-9" cx="247.609" cy="160.369" r="4.167"/><circle class="cls-9" cx="269.835" cy="160.369" r="4.167"/><g class="cls-12"><path id="i" class="cls-4" d="M254.8,86.276h99.275A5.928,5.928,0,0,1,360,92.2v165.87A5.928,5.928,0,0,1,354.073,264H254.8a5.927,5.927,0,0,1-5.927-5.927V92.2A5.927,5.927,0,0,1,254.8,86.276Z" transform="translate(-7.166 -14.076)"/></g><path class="cls-13" d="M254.8,86.276h99.275A5.928,5.928,0,0,1,360,92.2v165.87A5.928,5.928,0,0,1,354.073,264H254.8a5.927,5.927,0,0,1-5.927-5.927V92.2A5.927,5.927,0,0,1,254.8,86.276Z" transform="translate(-7.166 -14.076)"/><g class="cls-14"><path id="k" class="cls-4" d="M254.8,86.276h99.275A5.928,5.928,0,0,1,360,92.2v13.03H248.871V92.2A5.927,5.927,0,0,1,254.8,86.276Z" transform="translate(-7.166 -14.076)"/></g><path class="cls-5" d="M254.8,86.276h99.275A5.928,5.928,0,0,1,360,92.2v13.03H248.871V92.2A5.927,5.927,0,0,1,254.8,86.276Z" transform="translate(-7.166 -14.076)"/><rect class="cls-6" x="252.864" y="78.717" width="36.117" height="7.109" rx="1.482"/><path class="cls-15" d="M339.256,93.386h8.3a.592.592,0,0,1,.593.592h0a.592.592,0,0,1-.593.592h-8.3a.592.592,0,0,1-.593-.592h0A.592.592,0,0,1,339.256,93.386Z" transform="translate(-7.166 -14.076)"/><path class="cls-15" d="M339.256,95.755h8.3a.592.592,0,0,1,.593.592h0a.592.592,0,0,1-.593.593h-8.3a.592.592,0,0,1-.593-.593h0A.592.592,0,0,1,339.256,95.755Z" transform="translate(-7.166 -14.076)"/><path class="cls-15" d="M339.256,98.125h8.3a.592.592,0,0,1,.593.592h0a.593.593,0,0,1-.593.593h-8.3a.593.593,0,0,1-.593-.593h0A.592.592,0,0,1,339.256,98.125Z" transform="translate(-7.166 -14.076)"/><circle class="cls-16" cx="258.028" cy="114.896" r="5.209"/><rect class="cls-6" x="268.793" y="110.73" width="19.969" height="1.851" rx="0.319"/><rect class="cls-6" x="268.793" y="114.433" width="69.456" height="0.926" rx="0.319"/><rect class="cls-6" x="268.793" y="116.284" width="63.668" height="0.926" rx="0.319"/><rect class="cls-6" x="268.793" y="118.135" width="57.879" height="0.926" rx="0.319"/><circle class="cls-17" cx="258.028" cy="162.798" r="5.209"/><rect class="cls-6" x="268.793" y="158.632" width="19.969" height="1.851" rx="0.319"/><rect class="cls-6" x="268.793" y="162.335" width="69.456" height="0.926" rx="0.319"/><rect class="cls-6" x="268.793" y="164.186" width="63.668" height="0.926" rx="0.319"/><rect class="cls-6" x="268.793" y="166.037" width="57.879" height="0.926" rx="0.319"/><rect class="cls-6" x="268.793" y="126.698" width="19.969" height="1.851" rx="0.319"/><rect class="cls-6" x="268.793" y="130.401" width="69.456" height="0.926" rx="0.319"/><rect class="cls-6" x="268.793" y="132.252" width="63.668" height="0.926" rx="0.319"/><rect class="cls-6" x="268.793" y="134.103" width="57.879" height="0.926" rx="0.319"/><circle class="cls-18" cx="258.028" cy="130.863" r="5.209"/><rect class="cls-6" x="268.793" y="174.6" width="19.969" height="1.851" rx="0.319"/><rect class="cls-6" x="268.793" y="178.302" width="69.456" height="0.926" rx="0.319"/><rect class="cls-6" x="268.793" y="180.154" width="63.668" height="0.926" rx="0.319"/><rect class="cls-6" x="268.793" y="182.004" width="57.879" height="0.926" rx="0.319"/><circle class="cls-19" cx="258.028" cy="178.765" r="5.209"/><rect class="cls-6" x="268.793" y="142.665" width="19.969" height="1.851" rx="0.319"/><rect class="cls-6" x="268.793" y="146.368" width="69.456" height="0.926" rx="0.319"/><rect class="cls-6" x="268.793" y="148.219" width="63.668" height="0.926" rx="0.319"/><rect class="cls-6" x="268.793" y="150.07" width="57.879" height="0.926" rx="0.319"/><circle class="cls-20" cx="258.028" cy="146.831" r="5.209"/><rect class="cls-6" x="268.793" y="190.567" width="19.969" height="1.851" rx="0.319"/><rect class="cls-6" x="268.793" y="194.27" width="69.456" height="0.926" rx="0.319"/><rect class="cls-6" x="268.793" y="196.121" width="63.668" height="0.926" rx="0.319"/><rect class="cls-6" x="268.793" y="197.972" width="57.879" height="0.926" rx="0.319"/><circle class="cls-21" cx="258.028" cy="194.732" r="5.209"/><circle class="cls-22" cx="258.028" cy="210.7" r="5.209"/><rect class="cls-6" x="268.793" y="206.535" width="19.969" height="1.851" rx="0.319"/><rect class="cls-6" x="268.793" y="210.237" width="69.456" height="0.926" rx="0.319"/><rect class="cls-6" x="268.793" y="212.089" width="63.668" height="0.926" rx="0.319"/><rect class="cls-6" x="268.793" y="213.94" width="57.879" height="0.926" rx="0.319"/><rect class="cls-6" x="268.793" y="222.502" width="19.969" height="1.851" rx="0.319"/><rect class="cls-6" x="268.793" y="226.205" width="69.456" height="0.926" rx="0.319"/><rect class="cls-6" x="268.793" y="228.056" width="63.668" height="0.926" rx="0.319"/><rect class="cls-6" x="268.793" y="229.907" width="57.879" height="0.926" rx="0.319"/><circle class="cls-23" cx="258.028" cy="226.667" r="5.209"/></svg>